<svg id="Layer_1" data-name="Layer 1" xmlns="http://www.w3.org/2000/svg" viewBox="0 0 250 240"><defs><style>.cls-1{fill:#fff;}.cls-2{fill:#66f;}</style></defs><title>AtoZ_logo_teksti_alla_tummalle_taustalle_COLOR</title><path class="cls-1" d="M94,170h18v4h-7v16h-4V174H94Z"/><path class="cls-1" d="M182,170h18v3l-12,13h12v4H182v-3l12-13H182Z"/><polygon class="cls-1" points="62 170 58 170 50 190 54 190 55.6 186 55.6 186 60 175 64.4 186 64.4 186 66 190 70 190 62 170"/><path class="cls-1" d="M147,170a10,10,0,1,0,10,10A10,10,0,0,0,147,170Zm0,16a6,6,0,1,1,6-6A6,6,0,0,1,147,186Z"/><polygon class="cls-2" points="71 128 100 75 111.09 95.03 121.44 88.59 100 50 50 140 111 140 104 128 71 128"/><polygon class="cls-2" points="193 128 151 128 195 50 124 50 131 62 174 62 140 122 127.28 99.1 116.91 105.54 136 140 200 140 193 128"/></svg>